<?xml version="1.0" encoding="UTF-8" standalone="no"?>
<svg width="1440px" height="900px" viewBox="0 0 1440 900" version="1.1" xmlns="http://www.w3.org/2000/svg" xmlns:xlink="http://www.w3.org/1999/xlink" xmlns:sketch="http://www.bohemiancoding.com/sketch/ns">
    <!-- Generator: Sketch 3.0.4 (8053) - http://www.bohemiancoding.com/sketch -->
    <title>lines</title>
    <desc>Created with Sketch.</desc>
    <defs></defs>
    <g id="Page-3" stroke="none" stroke-width="1" fill="none" fill-rule="evenodd" sketch:type="MSPage">
        <g id="Desktop-HD" sketch:type="MSArtboardGroup">
            <g id="lines" sketch:type="MSLayerGroup" transform="translate(-143.000000, -319.000000)">
                <g id="lines-and-dots" transform="translate(139.000000, 258.000000)" sketch:type="MSShapeGroup">
                    <g id="Line" stroke-linecap="square" stroke="#FFFFFF">
                        <path d="M235.5,914.5 L1056.5,500.5" opacity="0.5"></path>
                        <path d="M794.5,231.5 L1056.5,500.5" id="Line-2"></path>
                        <path d="M794.5,231.5 L1347.5,502.5" id="Line-3"></path>
                        <path d="M1462.5,181.5 L1347.5,502.5" id="Line-4"></path>
                        <path d="M1482.5,862.5 L1347.5,502.5" id="Line-5"></path>
                        <path d="M570.5,960.5 L1347.5,502.5" id="Line-6"></path>
                        <path d="M794.5,231.5 L1453.5,369.5" id="Line-3" opacity="0.5"></path>
                        <path d="M794.5,231.5 L1490.5,77.5" id="Line-4"></path>
                        <path d="M794.5,231.5 L415.5,823.5" id="Line-5"></path>
                        <path d="M0.5,52.5 L415.5,823.5" id="Line-6"></path>
                        <path d="M3.5,499.5 L415.5,823.5" id="Line-7"></path>
                        <path d="M493.5,284.5 L415.5,823.5" id="Line-8"></path>
                        <path d="M493.5,284.5 L6.5,39.5" id="Line-9"></path>
                        <path d="M493.5,284.5 L905.5,0.5" id="Line-10"></path>
                        <path d="M493.5,284.5 L796.5,231.5" id="Line-11"></path>
                        <path d="M493.5,284.5 L1346.5,502.5" id="Line-12"></path>
                        <path d="M629.985639,927.014374 L1056.5,500.5" id="Line-3"></path>
                    </g>
                    <circle id="Oval-1" fill="#FFFFFF" cx="416.5" cy="822.5" r="10.5"></circle>
                    <circle id="Oval-1" fill="#FFFFFF" cx="494.5" cy="284.5" r="5.5"></circle>
                    <circle id="Oval-1" fill="#FFFFFF" cx="1054.5" cy="501.5" r="14.5"></circle>
                    <circle id="Oval-1" fill="#FFFFFF" cx="1346" cy="502" r="6"></circle>
                    <circle id="Oval-1" fill="#FFFFFF" cx="797" cy="232" r="9"></circle>
                </g>
                <g id="lines-and-dots-2" transform="translate(776.784880, 556.112274) rotate(176.000000) translate(-776.784880, -556.112274) translate(33.784880, 50.112274)" sketch:type="MSShapeGroup">
                    <g id="Line" transform="translate(0.000000, 0.000000)" stroke-linecap="square" stroke="rgba(255,255,255, 0.4)">
                        <path d="M230.5,965.5 L1051.5,551.5"></path>
                        <path d="M789.5,282.5 L1051.5,551.5" id="Line-2"></path>
                        <path d="M789.5,282.5 L1342.5,553.5" id="Line-3"></path>
                        <path d="M1457.5,232.5 L1342.5,553.5" id="Line-4"></path>
                        <path d="M1477.5,913.5 L1342.5,553.5" id="Line-5"></path>
                        <path d="M565.5,1011.5 L1342.5,553.5" id="Line-6"></path>
                        <path d="M789.5,282.5 L1485.5,128.5" id="Line-4"></path>
                        <path d="M789.5,282.5 L410.5,874.5" id="Line-5"></path>
                        <path d="M0.578270108,88.8072921 L410.5,874.5" id="Line-6"></path>
                        <path d="M45.4203341,250.328775 L410.5,874.5" id="Line-7"></path>
                        <path d="M488.5,335.5 L410.5,874.5" id="Line-8"></path>
                        <path d="M488.5,335.5 L1.5,90.5" id="Line-9"></path>
                        <path d="M488.5,335.5 L999.188202,0.251081169" id="Line-10"></path>
                        <path d="M488.5,335.5 L791.5,282.5" id="Line-11"></path>
                        <path d="M488.5,335.5 L1341.5,553.5" id="Line-12"></path>
                        <path d="M624.985639,978.014374 L1051.5,551.5" id="Line-3"></path>
                    </g>
                    <circle id="Oval-1" fill="#FFFFFF" cx="489.5" cy="335.5" r="5.5"></circle>
                    <circle id="Oval-1" fill="#FFFFFF" cx="1049.5" cy="552.5" r="14.5"></circle>
                    <circle id="Oval-1" fill="#FFFFFF" cx="1341" cy="553" r="6"></circle>
                    <circle id="Oval-1" fill="#FFFFFF" cx="792" cy="283" r="9"></circle>
                </g>
                <path d="M747.022384,783.27542 L1610.49998,927.499998" id="Line-3" stroke="rgba(255,255,255, 0.75)" stroke-linecap="square" sketch:type="MSShapeGroup"></path>
                <circle id="Oval-11" fill="#FFFFFF" sketch:type="MSShapeGroup" cx="1544.77681" cy="917.699922" r="5"></circle>
            </g>
        </g>
    </g>
</svg>